<svg xmlns="http://www.w3.org/2000/svg" viewBox="0 0 128 128"><defs><style>.cls-1{fill:#ffffff;}</style></defs><title>Yewno Logo</title><g id="Layer_2" data-name="Layer 2"><g id="monogram_black_small"><path id="knockedout" class="cls-1" d="M64,0a64,64,0,1,0,64,64A64,64,0,0,0,64,0ZM99.15,35.51,62.1,88.78V103h7.42V86.63a3,3,0,0,1,6,0V106a3,3,0,0,1-3,3H59.12a3,3,0,0,1-3-3V87.84a3,3,0,0,1,.54-1.71L91,36.79h-9.1L61.57,66a3,3,0,0,1-2.27,1.28,3,3,0,0,1-2.41-1L29.09,35.81a3,3,0,0,1,2.22-5H49.24a3,3,0,0,1,2.22,1L61.66,43a3,3,0,0,1-4.43,4L47.92,36.79H38.1L58.79,59.47l19-27.39a3,3,0,0,1,2.46-1.28h16.4a3,3,0,0,1,2.46,4.71Z"/></g></g></svg>
